<svg xmlns="http://www.w3.org/2000/svg" viewBox="0 0 24 24" aria-hidden="true"><path fill="currentColor" d="M20.5 3.5A11.8 11.8 0 0 0 12.1 0C5.6 0 .3 5.3.3 11.8c0 2.1.5 4.1 1.6 5.9L.2 24l6.5-1.7a11.8 11.8 0 0 0 5.4 1.3h.1c6.5 0 11.8-5.3 11.8-11.8 0-3.1-1.2-6.1-3.5-8.3Zm-8.4 18c-1.7 0-3.3-.4-4.8-1.3l-.3-.2-3.8 1 1-3.7-.2-.3a9.8 9.8 0 1 1 8.1 4.5Zm5.4-7.4c-.3-.2-1.8-.9-2.1-1s-.5-.2-.7.2-.8 1-.9 1.2-.3.2-.6.1a8 8 0 0 1-2.4-1.5 9 9 0 0 1-1.7-2.1c-.2-.3 0-.5.2-.7l.5-.6c.2-.2.2-.4.3-.6 0-.2 0-.4-.1-.6l-.9-2.2c-.2-.5-.5-.4-.7-.4h-.6c-.2 0-.6.1-.9.4-.3.3-1.1 1-1.1 2.5s1.1 2.9 1.2 3.1c.1.2 2.2 3.4 5.4 4.7.8.3 1.4.5 1.9.6.8.2 1.5.2 2.1.1.6-.1 1.8-.7 2-1.4.2-.7.2-1.3.1-1.4-.1-.1-.3-.2-.6-.4Z"/></svg>